<svg xmlns="http://www.w3.org/2000/svg" xmlns:xlink="http://www.w3.org/1999/xlink" width="30" height="32" viewBox="0 0 30 32"><!--! Font Awesome Pro 6.1.0 by @fontawesome - https://fontawesome.com License - https://fontawesome.com/license (Commercial License) Copyright 2022 Fonticons, Inc. -->
<!-- <path d="M0 256C0 114.6 114.6 0 256 0C397.4 0 512 114.6 512 256C512 397.4 397.4 512 256 512C114.6 512 0 397.4 0 256zM256 352C309 352 352 309 352 256C352 202.1 309 160 256 160C202.1 160 160 202.1 160 256C160 309 202.1 352 256 352z"/> -->
<defs>
        <linearGradient id="prefix__c" x1="21.972%" x2="84.992%" y1="13.956%" y2="85.782%">
            <stop offset="0%" stop-color="#f50057"/>
            <stop offset="100%" stop-color="#ff5983"/>
        </linearGradient>
        <filter id="prefix__a" width="179.5%" height="179.5%" x="-39.7%" y="-30.4%" filterUnits="objectBoundingBox">
            <feOffset dy="2" in="SourceAlpha" result="shadowOffsetOuter1"/>
            <feGaussianBlur in="shadowOffsetOuter1" result="shadowBlurOuter1" stdDeviation="2.5"/>
            <feColorMatrix in="shadowBlurOuter1" values="0 0 0 0 0 0 0 0 0 0 0 0 0 0 0 0 0 0 0.1 0"/>
        </filter>
        <circle id="prefix__b" cx="10.692" cy="10.692" r="10.692"/>
</defs>
    <g fill="none" fill-rule="evenodd">
        <path fill="#FFF" fill-opacity="0" d="M0 0H30V32H0z"/>
        <g transform="translate(4 5)">
            <use fill="#000" filter="url(#prefix__a)" xlink:href="#prefix__b"/>
            <use fill="url(#prefix__c)" xlink:href="#prefix__b"/>
            <circle cx="10.45" cy="10.45" r="3.85" fill="#FFF"/>
        </g>
    </g>
</svg>
